<svg xmlns="http://www.w3.org/2000/svg" viewBox="-0.017 -0.017 9.033 9.033"><style>@font-face{font-family:&quot;Font Awesome 5 Free&quot;;font-style:normal;font-weight:900;font-display:block;src:url(./fa-solid-900.eot);src:url(./fa-solid-900.eot?#iefix) format(&quot;embedded-opentype&quot;),url(./fa-solid-900.woff2) format(&quot;woff2&quot;),url(./fa-solid-900.woff) format(&quot;woff&quot;),url(./fa-solid-900.ttf) format(&quot;truetype&quot;),url(./fa-solid-900.svg#fontawesome) format(&quot;svg&quot;)}*{font-family:BlinkMacSystemFont,-apple-system,&quot;Segoe UI&quot;,&quot;Roboto&quot;,&quot;Oxygen&quot;,&quot;Ubuntu&quot;,&quot;Cantarell&quot;,&quot;Fira Sans&quot;,&quot;Droid Sans&quot;,&quot;Helvetica Neue&quot;,&quot;Helvetica&quot;,&quot;Arial&quot;,sans-serif}</style><g pointer-events="none" stroke-width=".033"><path stroke="#d3d3d3" d="M1 0v9m1-9v9m2-9v9m1-9v9m2-9v9m1-9v9M0 1h9M0 2h9M0 4h9M0 5h9M0 7h9M0 8h9"/><path stroke="#000" d="M0 0v9m3-9v9m3-9v9m3-9v9"/><path stroke="#000" stroke-linecap="square" d="M0 0h9M0 3h9M0 6h9M0 9h9"/></g><g pointer-events="none" text-anchor="middle" font-size=".8"><text transform="translate(0 1)"><tspan x=".5" y=".5" alignment-baseline="central" fill="currentColor">6</tspan></text><text transform="translate(0 2)"><tspan x=".5" y=".5" alignment-baseline="central" fill="currentColor">5</tspan></text><text transform="translate(0 3)"><tspan x=".5" y=".5" alignment-baseline="central" fill="currentColor">8</tspan></text><text transform="translate(0 4)"><tspan x=".5" y=".5" alignment-baseline="central" fill="currentColor">4</tspan></text><text transform="translate(0 5)"><tspan x=".5" y=".5" alignment-baseline="central" fill="currentColor">2</tspan></text><text transform="translate(0 6)"><tspan x=".5" y=".5" alignment-baseline="central" fill="currentColor">7</tspan></text><text transform="translate(0 7)"><tspan x=".5" y=".5" alignment-baseline="central" fill="currentColor">3</tspan></text><text transform="translate(0 8)"><tspan x=".5" y=".5" alignment-baseline="central" fill="currentColor">9</tspan></text><text transform="translate(1)"><tspan x=".5" y=".5" alignment-baseline="central" fill="currentColor">8</tspan></text><text transform="translate(1 1)"><tspan x=".5" y=".5" alignment-baseline="central" fill="currentColor">3</tspan></text><text transform="translate(1 2)"><tspan x=".5" y=".5" alignment-baseline="central" fill="currentColor">2</tspan></text><text transform="translate(1 3)"><tspan x=".5" y=".5" alignment-baseline="central" fill="currentColor">6</tspan></text><text transform="translate(1 5)"><tspan x=".5" y=".5" alignment-baseline="central" fill="currentColor">9</tspan></text><text transform="translate(1 7)"><tspan x=".5" y=".5" alignment-baseline="central" fill="currentColor">5</tspan></text><text transform="translate(1 8)"><tspan x=".5" y=".5" alignment-baseline="central" fill="currentColor">1</tspan></text><text transform="translate(2)"><tspan x=".5" y=".5" alignment-baseline="central" fill="currentColor">7</tspan></text><text transform="translate(2 1)"><tspan x=".5" y=".5" alignment-baseline="central" fill="currentColor">4</tspan></text><text transform="translate(2 2)"><tspan x=".5" y=".5" alignment-baseline="central" fill="currentColor">9</tspan></text><text transform="translate(2 3)"><tspan x=".5" y=".5" alignment-baseline="central" fill="currentColor">1</tspan></text><text transform="translate(2 4)"><tspan x=".5" y=".5" alignment-baseline="central" fill="currentColor">5</tspan></text><text transform="translate(2 5)"><tspan x=".5" y=".5" alignment-baseline="central" fill="currentColor">3</tspan></text><text transform="translate(2 7)"><tspan x=".5" y=".5" alignment-baseline="central" fill="currentColor">6</tspan></text><text transform="translate(2 8)"><tspan x=".5" y=".5" alignment-baseline="central" fill="currentColor">8</tspan></text><text transform="translate(3)"><tspan x=".5" y=".5" alignment-baseline="central" fill="currentColor">6</tspan></text><text transform="translate(3 1)"><tspan x=".5" y=".5" alignment-baseline="central" fill="currentColor">5</tspan></text><text transform="translate(3 2)"><tspan x=".5" y=".5" alignment-baseline="central" fill="currentColor">3</tspan></text><text transform="translate(3 3)"><tspan x=".5" y=".5" alignment-baseline="central" fill="currentColor">4</tspan></text><text transform="translate(3 4)"><tspan x=".5" y=".5" alignment-baseline="central" fill="currentColor">9</tspan></text><text transform="translate(3 6)"><tspan x=".5" y=".5" alignment-baseline="central" fill="currentColor">1</tspan></text><text transform="translate(3 7)"><tspan x=".5" y=".5" alignment-baseline="central" fill="currentColor">7</tspan></text><text transform="translate(4)"><tspan x=".5" y=".5" alignment-baseline="central" fill="currentColor">2</tspan></text><text transform="translate(4 3)"><tspan x=".5" y=".5" alignment-baseline="central" fill="currentColor">7</tspan></text><text transform="translate(4 4)"><tspan x=".5" y=".5" alignment-baseline="central" fill="currentColor">6</tspan></text><text transform="translate(4 5)"><tspan x=".5" y=".5" alignment-baseline="central" fill="currentColor">5</tspan></text><text transform="translate(4 6)"><tspan x=".5" y=".5" alignment-baseline="central" fill="currentColor">8</tspan></text><text transform="translate(4 7)"><tspan x=".5" y=".5" alignment-baseline="central" fill="currentColor">4</tspan></text><text transform="translate(4 8)"><tspan x=".5" y=".5" alignment-baseline="central" fill="currentColor">3</tspan></text><text transform="translate(5)"><tspan x=".5" y=".5" alignment-baseline="central" fill="currentColor">4</tspan></text><text transform="translate(5 1)"><tspan x=".5" y=".5" alignment-baseline="central" fill="currentColor">7</tspan></text><text transform="translate(5 2)"><tspan x=".5" y=".5" alignment-baseline="central" fill="currentColor">8</tspan></text><text transform="translate(5 3)"><tspan x=".5" y=".5" alignment-baseline="central" fill="currentColor">2</tspan></text><text transform="translate(5 4)"><tspan x=".5" y=".5" alignment-baseline="central" fill="currentColor">3</tspan></text><text transform="translate(5 7)"><tspan x=".5" y=".5" alignment-baseline="central" fill="currentColor">9</tspan></text><text transform="translate(5 8)"><tspan x=".5" y=".5" alignment-baseline="central" fill="currentColor">5</tspan></text><text transform="translate(6)"><tspan x=".5" y=".5" alignment-baseline="central" fill="currentColor">5</tspan></text><text transform="translate(6 1)"><tspan x=".5" y=".5" alignment-baseline="central" fill="currentColor">1</tspan></text><text transform="translate(6 2)"><tspan x=".5" y=".5" alignment-baseline="central" fill="currentColor">6</tspan></text><text transform="translate(6 3)"><tspan x=".5" y=".5" alignment-baseline="central" fill="currentColor">3</tspan></text><text transform="translate(6 4)"><tspan x=".5" y=".5" alignment-baseline="central" fill="currentColor">8</tspan></text><text transform="translate(6 5)"><tspan x=".5" y=".5" alignment-baseline="central" fill="currentColor">4</tspan></text><text transform="translate(6 6)"><tspan x=".5" y=".5" alignment-baseline="central" fill="currentColor">9</tspan></text><text transform="translate(6 7)"><tspan x=".5" y=".5" alignment-baseline="central" fill="currentColor">2</tspan></text><text transform="translate(6 8)"><tspan x=".5" y=".5" alignment-baseline="central" fill="currentColor">7</tspan></text><text transform="translate(7 1)"><tspan x=".5" y=".5" alignment-baseline="central" fill="currentColor">2</tspan></text><text transform="translate(7 2)"><tspan x=".5" y=".5" alignment-baseline="central" fill="currentColor">7</tspan></text><text transform="translate(7 3)"><tspan x=".5" y=".5" alignment-baseline="central" fill="currentColor">5</tspan></text><text transform="translate(7 4)"><tspan x=".5" y=".5" alignment-baseline="central" fill="currentColor">1</tspan></text><text transform="translate(7 5)"><tspan x=".5" y=".5" alignment-baseline="central" fill="currentColor">6</tspan></text><text transform="translate(7 6)"><tspan x=".5" y=".5" alignment-baseline="central" fill="currentColor">3</tspan></text><text transform="translate(7 7)"><tspan x=".5" y=".5" alignment-baseline="central" fill="currentColor">8</tspan></text><text transform="translate(7 8)"><tspan x=".5" y=".5" alignment-baseline="central" fill="currentColor">4</tspan></text><text transform="translate(8)"><tspan x=".5" y=".5" alignment-baseline="central" fill="currentColor">3</tspan></text><text transform="translate(8 1)"><tspan x=".5" y=".5" alignment-baseline="central" fill="currentColor">8</tspan></text><text transform="translate(8 2)"><tspan x=".5" y=".5" alignment-baseline="central" fill="currentColor">4</tspan></text><text transform="translate(8 3)"><tspan x=".5" y=".5" alignment-baseline="central" fill="currentColor">9</tspan></text><text transform="translate(8 4)"><tspan x=".5" y=".5" alignment-baseline="central" fill="currentColor">2</tspan></text><text transform="translate(8 5)"><tspan x=".5" y=".5" alignment-baseline="central" fill="currentColor">7</tspan></text><text transform="translate(8 6)"><tspan x=".5" y=".5" alignment-baseline="central" fill="currentColor">5</tspan></text><text transform="translate(8 8)"><tspan x=".5" y=".5" alignment-baseline="central" fill="currentColor">6</tspan></text></g></svg>