<svg xmlns="http://www.w3.org/2000/svg" width="256" height="256" viewBox="-0.017 -0.017 3.033 3.033"><style>*{font-family:BlinkMacSystemFont,-apple-system,&quot;Segoe UI&quot;,&quot;Roboto&quot;,&quot;Oxygen&quot;,&quot;Ubuntu&quot;,&quot;Cantarell&quot;,&quot;Fira Sans&quot;,&quot;Droid Sans&quot;,&quot;Helvetica Neue&quot;,&quot;Helvetica&quot;,&quot;Arial&quot;,sans-serif}</style><g pointer-events="none" stroke="currentColor" stroke-width=".033"><path opacity=".2" d="M1 0v3m1-3v3M0 1h3M0 2h3"/><path stroke-linecap="square" d="M0 0v3m3-3v3m3-3v3M3 0v3M0 0h3M0 3h3M0 6h3M0 3h3"/></g><g pointer-events="none" text-anchor="middle" font-size=".8"><text><tspan x=".5" y=".5" dominant-baseline="central">1</tspan></text><text transform="translate(0 1)"><tspan x=".5" y=".5" dominant-baseline="central">6</tspan></text><text transform="translate(0 2)"><tspan x=".5" y=".5" dominant-baseline="central" font-weight="300">5</tspan></text><text transform="translate(1)"><tspan x=".5" y=".5" dominant-baseline="central" font-weight="300">8</tspan></text><text transform="translate(1 2)"><tspan x=".5" y=".5" dominant-baseline="central">2</tspan></text><text transform="translate(2)"><tspan x=".5" y=".5" dominant-baseline="central" font-weight="300">7</tspan></text><text transform="translate(2 1)"><tspan x=".5" y=".5" dominant-baseline="central" font-weight="300">4</tspan></text><text transform="translate(2 2)"><tspan x=".5" y=".5" dominant-baseline="central">9</tspan></text></g></svg>
